# xmcd
#
# Track frame offsets: 
#        150
#        23278
#        36934
#        53405
#        82883
#        124955
#        144825
#
# Disc length: 2354 seconds
#
# Revision: 0
# Processed by: cddbd v1.5.2PL0 Copyright (c) Steve Scherf et al.
# Submitted via: ExactAudioCopy v0.95b3
#
DISCID=47093007
DTITLE=Traffic  - Stockholm Sweden  1967-09-12  FLAC
DYEAR=1900
DGENRE=
TTITLE0=Giving to You
TTITLE1=Smiling Phases
TTITLE2=Coloured Rain
TTITLE3=Hole In My Shoe
TTITLE4=Feelin' Good
TTITLE5=Paper Sun
TTITLE6=Dear Mr. Fantasy
EXTD=
EXTT0=
EXTT1=
EXTT2=
EXTT3=
EXTT4=
EXTT5=
EXTT6=
PLAYORDER=
